<?xml version="1.0" encoding="UTF-8" standalone="no"?>
<svg xmlns="http://www.w3.org/2000/svg" xmlns:xlink="http://www.w3.org/1999/xlink" contentScriptType="text/ecmascript" width="100%" zoomAndPan="magnify" contentStyleType="text/css" viewBox="-10 -10 861 1209" height="100%" preserveAspectRatio="xMidYMid meet" xml:space="preserve" version="1.1">

	<defs>
		<filter id="dropshadow" height="130%">
		  <feGaussianBlur in="SourceAlpha" stdDeviation="3"/> <!-- stdDeviation is how much to blur -->
		  <feOffset dx="2" dy="2" result="offsetblur"/> <!-- how 3uch to offset -->
			<feComponentTransfer>
			<feFuncA type="linear" slope="0.2"/>
		  </feComponentTransfer>
		  <feMerge> 
			<feMergeNode/> <!-- this contains the offset blurred image -->
			<feMergeNode in="SourceGraphic"/> <!-- this contains the element that the filter is applied to -->
		  </feMerge>
		</filter>

		<pattern x="0" y="0" width="1" patternUnits="userSpaceOnUse" xlink:type="simple" xlink:actuate="onLoad" height="1" id="lightpaperfibers" preserveAspectRatio="xMidYMid meet" xlink:show="other">
			<image x="0" y="0" xlink:href="/res/lightpaperfibers.png" xlink:type="simple" xlink:actuate="onLoad" preserveAspectRatio="xMidYMid meet" xlink:show="embed"/>
		</pattern>

		<rect id="background" x="0" y="0" width="841" height="1189"  fill="url(#lightpaperfibers)" ></rect>
		<rect id="yellow" x="600" y="800" width="100" height="100" fill="rgb(242,229,0)" opacity="0.2" ></rect>

		<image id="green" x="600" y="800" xlink:href="/res/numbers/0012_CH3M/7/number-68.png" xlink:type="simple" xlink:actuate="onLoad" preserveAspectRatio="xMidYMid meet" xlink:show="embed"/>

		<path id="greenblue" transform="rotate(135 250 180)" d="M200,50 a35 35 0 0 1 100 0 l0 70 a35 35 0 0 1 -100 0 z" fill="rgb(104,193,159)" ></path>
		<path id="blue" transform="rotate(180 250 180)" d="M200,50 a35 35 0 0 1 100 0 l0 70 a35 35 0 0 1 -100 0 z" fill="rgb(112,178,226)" ></path>
		<path id="violet" transform="rotate(225 250 180)" d="M200,50 a35 35 0 0 1 100 0 l0 70 a35 35 0 0 1 -100 0 z" fill="rgb(166,141,197)" ></path>
		<path id="pink" transform="rotate(270 250 180)" d="M200,50 a35 35 0 0 1 100 0 l0 70 a35 35 0 0 1 -100 0 z" fill="rgb(213,135,172)" ></path>
		<path id="red" transform="rotate(315 250 180)" d="M200,50 a35 35 0 0 1 100 0 l0 70 a35 35 0 0 1 -100 0 z" fill="rgb(246,116,93)" > </path>

		<filter id="blendit">
			<feImage xlink:href="#background" x="0" y="0" result="1"/>
			<feImage xlink:href="#yellow" x="0" y="0" result="2"/>
			<feImage xlink:href="#green" x="0" y="0" result="3"/>
			<feImage xlink:href="#greenblue" x="0" y="0" result="4"/>
			<feImage xlink:href="#blue" x="0" y="0" result="5"/>
			<feImage xlink:href="#violet" x="0" y="0" result="6"/>
			<feImage xlink:href="#pink" x="0" y="0" result="7"/>
			<feImage xlink:href="#red" x="0" y="0" result="8"/>
			<feBlend mode="multiply" in="1" in2="2" result="12"/>
			<feBlend mode="multiply" in="12" in2="3" result="123"/>
			<feBlend mode="multiply" in="123" in2="4" result="1234"/>
			<feBlend mode="multiply" in="1234" in2="5" result="12345"/>
			<feBlend mode="multiply" in="12345" in2="6" result="123456"/>
			<feBlend mode="multiply" in="123456" in2="7" result="1234567"/>
			<feBlend mode="multiply" in="1234567" in2="8" result="FINAL"/>
		</filter>
	</defs>

	<rect x="0" y="0" width="841" height="1189" style="filter:url(#dropshadow)" id="document_dropshadow" />
	<rect x="0" y="0" width="841" height="1189" style="filter:url(#blendit)" id="document" />
	
	<polygon id="background" points="0,0 0,400 400,400 400,0" style="fill:#000066;stroke:#000000;stroke-width:0"/>
	<circle id="circle1" class="app-link" data-ref="circle1" cx="120" cy="120" r="80" stroke="#4444FF" stroke-width="30" fill="#8888FF" />
	<polygon id="box" points="100,200 100,300 300,300 300,200" style="fill:#FF0000;stroke:#AA0000;stroke-width:30"/>
	<circle id="circle2" class="app-link" data-ref="circle2" cx="250" cy="200" r="120" stroke="#00AA00" stroke-width="30" fill="#00FF00" />

</svg>